<?xml version="1.0" encoding="UTF-8"?>
<svg version="1.1" xmlns="http://www.w3.org/2000/svg" width="168" height="136">
<path d="M0 0 C5.01296411 -0.10024386 10.02532185 -0.17210365 15.0390625 -0.21972656 C16.73805934 -0.23961663 18.43698984 -0.2667388 20.13574219 -0.30175781 C39.4025786 -0.68845937 55.28125131 3.0532107 69.70703125 16.69921875 C74.72232489 21.73160027 79.19824363 26.40763207 82 33 C82.42410156 32.3709375 82.84820312 31.741875 83.28515625 31.09375 C94.25392746 15.08657619 106.16499934 5.28163514 125.15698242 0.45141602 C128.9687489 -0.15381852 132.7342864 -0.12300241 136.58203125 -0.09765625 C137.80329964 -0.09553383 137.80329964 -0.09553383 139.04924011 -0.09336853 C141.63703156 -0.08779317 144.22473492 -0.07524524 146.8125 -0.0625 C148.57226437 -0.05748181 150.33203011 -0.05291946 152.09179688 -0.04882812 C156.39456494 -0.03783181 160.69726756 -0.02058421 165 0 C165.02332856 17.19338969 165.04097896 34.38677447 165.05181217 51.58017635 C165.05697522 59.562815 165.06401809 67.54544383 165.07543945 75.52807617 C165.08538602 82.48323799 165.09185336 89.43839269 165.09408849 96.39356142 C165.09539565 100.07851927 165.09848179 103.76345678 165.10573006 107.44840813 C165.1137434 111.55537708 165.11399116 115.66231037 165.11352539 119.76928711 C165.11712067 120.99998932 165.12071594 122.23069153 165.12442017 123.49868774 C165.1230455 124.61073074 165.12167084 125.72277374 165.12025452 126.86851501 C165.12163721 128.32725241 165.12163721 128.32725241 165.12304783 129.81545925 C165 132 165 132 164 133 C161.55169574 133.08843793 159.13179401 133.11528752 156.68359375 133.09765625 C155.95253922 133.0962413 155.22148468 133.09482635 154.46827698 133.09336853 C152.12464368 133.08775408 149.78110461 133.07519922 147.4375 133.0625 C145.85221492 133.05748686 144.26692834 133.05292363 142.68164062 133.04882812 C138.7877239 133.03777997 134.89387795 133.02050572 131 133 C132.42632369 129.98541026 133.5751965 128.31860263 136.25 126.3125 C145.77733801 118.36975043 149.5440039 107.0142959 151 95 C151.11141996 92.18821745 151.18377067 89.39812808 151.20532227 86.58618164 C151.21522186 85.7756131 151.22512146 84.96504456 151.23532104 84.12991333 C151.26669417 81.47335648 151.29159693 78.8167818 151.31640625 76.16015625 C151.33699671 74.3092759 151.35799371 72.45840002 151.37937927 70.60752869 C151.43438395 65.7529566 151.48388787 60.8983436 151.53222656 56.04370117 C151.58260002 51.08313385 151.63820312 46.12262541 151.69335938 41.16210938 C151.80067643 31.44145664 151.90217936 21.72075262 152 12 C148.14373805 12.28709218 144.28863995 12.5876777 140.43359375 12.890625 C139.34703491 12.97135254 138.26047607 13.05208008 137.14099121 13.13525391 C125.33605504 14.07695822 116.55881897 16.79625237 107 24 C106.13375 24.5775 105.2675 25.155 104.375 25.75 C95.86831643 33.80896338 90.3520099 44.90519813 89.84178162 56.63838196 C89.82127895 58.0626526 89.8059065 59.48700301 89.79467773 60.91137695 C89.78477814 61.69239273 89.77487854 62.47340851 89.76467896 63.27809143 C89.73320433 65.84812434 89.7083623 68.4181757 89.68359375 70.98828125 C89.66301209 72.77475961 89.6420153 74.56123322 89.62062073 76.34770203 C89.56552525 81.04119013 89.51606091 85.73472127 89.46777344 90.42828369 C89.41746678 95.22110813 89.36182862 100.01387035 89.30664062 104.80664062 C89.19921231 114.20437389 89.09773351 123.60216126 89 133 C84.71 133 80.42 133 76 133 C75.99413376 132.04723679 75.98826752 131.09447357 75.98222351 130.11283875 C75.9247907 121.09510734 75.85192333 112.07761234 75.76428509 103.06012249 C75.71972565 98.42510942 75.68043847 93.79018133 75.65356445 89.1550293 C75.62738661 84.67445654 75.58688396 80.19421339 75.53681374 75.71384621 C75.5202423 74.01204366 75.50866791 72.31018424 75.50238609 70.60831261 C75.43284362 53.48593481 72.72688136 39.20353905 60.51953125 26.328125 C49.86891328 16.48662375 38.492657 13.74738737 24.375 12.8125 C23.27542969 12.73064453 22.17585938 12.64878906 21.04296875 12.56445312 C18.36253312 12.36633397 15.68180892 12.17838161 13 12 C13.06144405 23.00592066 13.13871625 34.01160874 13.23571491 45.01727676 C13.28027738 50.12868903 13.31956402 55.24002418 13.34643555 60.3515625 C13.37261018 65.29247701 13.41311092 70.23309247 13.46318626 75.1738205 C13.47975979 77.05063889 13.49133289 78.92750889 13.49761391 80.80438995 C13.56069559 97.935116 15.12562185 113.20640965 27.75 126.125 C29.77333229 128.02541958 31.66654209 129.44436139 34 131 C34 131.66 34 132.32 34 133 C29.31860746 133.02465288 24.63725241 133.04283739 19.95581055 133.05493164 C18.36205386 133.05997157 16.76830181 133.0668035 15.17456055 133.07543945 C12.88849747 133.08751999 10.60249533 133.09323155 8.31640625 133.09765625 C7.59973282 133.10281754 6.88305939 133.10797882 6.14466858 133.11329651 C4.42936328 133.11349263 2.71418734 133.06192007 1 133 C-0 132 -0 132 -0.12304783 129.81545925 C-0.12212604 128.84296765 -0.12120424 127.87047606 -0.12025452 126.86851501 C-0.12162918 125.75647202 -0.12300385 124.64442902 -0.12442017 123.49868774 C-0.12082489 122.26798553 -0.11722961 121.03728333 -0.11352539 119.76928711 C-0.11367142 118.48166977 -0.11381744 117.19405243 -0.1139679 115.86741638 C-0.11425586 112.3262524 -0.10835936 108.78512201 -0.10139394 105.24396586 C-0.09516017 101.54705012 -0.09455658 97.85013369 -0.09336853 94.1532135 C-0.09025528 87.14796101 -0.08204199 80.14272405 -0.07201904 73.13747841 C-0.0608577 65.16421124 -0.0553474 57.19094335 -0.05032361 49.21767032 C-0.03985937 32.81177111 -0.02226005 16.40588753 0 0 Z " fill="#41C0E1" transform="translate(2,0)"/>
<path d="M0 0 C0 11.88 0 23.76 0 36 C-4.29 36 -8.58 36 -13 36 C-13 28.74 -13 21.48 -13 14 C-14.5675 14.78375 -16.135 15.5675 -17.75 16.375 C-23 19 -23 19 -25.26171875 20.05078125 C-27.58151165 21.31754456 -27.9688391 22.5939579 -29 25 C-29.495 25.70125 -29.99 26.4025 -30.5 27.125 C-34.75822492 35.28659776 -34.33034004 44.9030497 -34.4140625 53.8828125 C-34.43342865 55.17822968 -34.4527948 56.47364685 -34.4727478 57.80831909 C-34.52361475 61.21774424 -34.56348034 64.62720841 -34.60089111 68.0368042 C-34.64121931 71.52983895 -34.69217863 75.02271781 -34.7421875 78.515625 C-34.83840698 85.3436355 -34.92298061 92.17174661 -35 99 C-33.069001 98.09305848 -31.14443498 97.17241257 -29.22265625 96.24609375 C-28.15023682 95.7348999 -27.07781738 95.22370605 -25.97290039 94.69702148 C-19.73204917 91.1345548 -16.02897932 84.80779076 -14 78 C-13.52235455 74.35703084 -13.40031688 70.73324568 -13.3125 67.0625 C-13.27833984 66.09248047 -13.24417969 65.12246094 -13.20898438 64.12304688 C-13.1271237 61.7490872 -13.06187096 59.37456473 -13 57 C-16.3 57 -19.6 57 -23 57 C-23 53.04 -23 49.08 -23 45 C-15.41 45 -7.82 45 0 45 C0.06958636 49.19579973 0.12909103 53.389528 0.16479492 57.58544922 C0.17970701 59.00706841 0.20004409 60.42864307 0.22631836 61.85009766 C0.49573962 76.82146706 -1.28212301 89.78542668 -11.98828125 101.1015625 C-20.23485185 108.62755897 -28.66272556 112.01032303 -39.875 112.6875 C-40.55046875 112.73455078 -41.2259375 112.78160156 -41.921875 112.83007812 C-43.61236321 112.93361204 -45.30656675 112.97255033 -47 113 C-48.86003293 111.13996707 -48.13752141 108.04318118 -48.14526367 105.55932617 C-48.14862228 104.88595215 -48.1519809 104.21257812 -48.15544128 103.51879883 C-48.16499096 101.27683698 -48.16689747 99.03494972 -48.16796875 96.79296875 C-48.17118241 95.23130767 -48.17454657 93.6696469 -48.17805481 92.10798645 C-48.18405877 88.82173975 -48.1858938 85.53551938 -48.18530273 82.24926758 C-48.18520192 78.0679458 -48.19876427 73.88679694 -48.21607494 69.70551586 C-48.22728721 66.47183992 -48.22921901 63.23820426 -48.22869301 60.00451088 C-48.22986274 58.46536993 -48.23422699 56.92622758 -48.24202538 55.38710594 C-48.31236854 40.04765974 -47.21960615 26.33447487 -37.6875 13.625 C-26.89905151 3.08744566 -14.70693537 0 0 0 Z " fill="#41C0E1" transform="translate(146,20)"/>
<path d="M0 0 C1.44490028 -0.00613546 2.88980807 -0.01051984 4.3347168 -0.01416016 C5.1393486 -0.01678864 5.94398041 -0.01941711 6.772995 -0.02212524 C17.33749084 0.08283278 27.66319418 4.52023008 35.375 11.6875 C43.25819047 20.26046964 47.34408501 30.43295067 47.22705078 42.04663086 C47.22734283 42.81818512 47.22763489 43.58973938 47.22793579 44.38467407 C47.22655271 46.91151541 47.21104018 49.43805451 47.1953125 51.96484375 C47.19157873 53.72603698 47.18873348 55.48723229 47.18673706 57.24842834 C47.17912927 61.86636162 47.15950549 66.48416755 47.1373291 71.10205078 C47.11680898 75.82127154 47.10772219 80.54051304 47.09765625 85.25976562 C47.07625675 94.50656613 47.0421555 103.75327244 47 113 C44.59987595 112.86179563 42.20034226 112.71773341 39.80078125 112.5703125 C39.12567505 112.53204346 38.45056885 112.49377441 37.75500488 112.4543457 C25.99721772 111.71657411 17.11270814 106.73291824 9.125 98.0625 C2.56823428 90.07095966 -0.33135425 81.30373506 -0.22705078 70.95336914 C-0.22734283 70.18181488 -0.22763489 69.41026062 -0.22793579 68.61532593 C-0.22655271 66.08848459 -0.21104018 63.56194549 -0.1953125 61.03515625 C-0.19157873 59.27396302 -0.18873348 57.51276771 -0.18673706 55.75157166 C-0.17912927 51.13363838 -0.15950549 46.51583245 -0.1373291 41.89794922 C-0.11680898 37.17872846 -0.10772219 32.45948696 -0.09765625 27.74023438 C-0.07625675 18.49343387 -0.0421555 9.24672756 0 0 Z M13 14 C12.90696098 22.18906885 12.83606464 30.37791364 12.79275131 38.56738186 C12.77195382 42.37087732 12.74378193 46.17400885 12.69824219 49.97729492 C12.65450135 53.65371801 12.63080408 57.32979298 12.62049103 61.00645638 C12.61314986 62.40299007 12.59881517 63.79950659 12.57707977 65.19589043 C12.40442017 76.7573482 14.12940022 84.68956158 22.05859375 93.26953125 C25.33006772 96.18555332 29.48891339 99 34 99 C34.09303902 90.81093115 34.16393536 82.62208636 34.20724869 74.43261814 C34.22804618 70.62912268 34.25621807 66.82599115 34.30175781 63.02270508 C34.34549865 59.34628199 34.36919592 55.67020702 34.37950897 51.99354362 C34.38685014 50.59700993 34.40118483 49.20049341 34.42292023 47.80410957 C34.59557983 36.2426518 32.87059978 28.31043842 24.94140625 19.73046875 C21.66993228 16.81444668 17.51108661 14 13 14 Z " fill="#41C0E1" transform="translate(23,20)"/>
<path d="M0 0 C14.19 0 28.38 0 43 0 C39.67779064 3.32220936 36.85800007 5.45371995 33 8 C28.7044924 11.33120998 25.34904933 14.76443761 22 19 C18.09482959 15.67645072 14.23953958 12.31616802 10.4375 8.875 C7.11093474 5.89590131 3.75146091 3.40478263 0 1 C0 0.67 0 0.34 0 0 Z " fill="#41C0E1" transform="translate(63,0)"/>
</svg>
